<svg width="35.999" height="36.005" xmlns="http://www.w3.org/2000/svg" xmlns:xlink="http://www.w3.org/1999/xlink">
 <g>
  <title>background</title>
  <rect fill="none" id="canvas_background" height="402" width="582" y="-1" x="-1"/>
 </g>
 <g>
  <title>Layer 1</title>
  <path id="svg_1" fill="none" marker-start="none" marker-end="none" d="m0,0l0,36.005l35.999,0l0,-36.005l-35.999,0z"/>
  <defs>
   <rect width="35.999" id="SVGID_1_" height="36.005"/>
   <linearGradient y2="Infinity" y1="-Infinity" x2="Infinity" x1="Infinity" id="SVGID_3_">
    <stop stop-color="#73AEFF" offset="0"/>
    <stop stop-color="#478DEC" offset="0.5446"/>
    <stop stop-color="#205DAF" offset="1"/>
   </linearGradient>
  </defs>
  <clipPath id="SVGID_2_">
   <use id="svg_3" xlink:href="#SVGID_1_"/>
  </clipPath>
  <path id="svg_5" fill="#205DAF" marker-start="none" marker-end="none" d="m6.139,25.915c-2.876,-4.316 -2.942,-9.628 -1.309,-13.898c1.615,-4.221 5.316,-7.658 10.016,-8.248c3.617,-0.454 7.376,0.494 10.959,3.924l0.054,0.057l0.038,0.046l3.812,-4.203c0.431,-0.476 1.226,-0.221 1.3,0.417l1.575,13.499c0.056,0.478 -0.348,0.885 -0.827,0.832l-13.162,-1.462c-0.605,-0.067 -0.882,-0.792 -0.477,-1.245l3.78,-4.231l-0.043,-0.066l-0.913,-0.757c-2.22,-1.673 -4.021,-1.877 -5.52,-1.693c-2.452,0.311 -4.923,2.06 -6.071,5.063c-1.123,2.937 -0.991,6.347 0.773,8.993c1.726,2.593 5.284,5.126 12.294,5.211c1.4,0.015 2.423,1.242 2.409,2.605c-0.014,1.365 -1.064,2.568 -2.466,2.549c-8.011,-0.098 -13.312,-3.023 -16.222,-7.393z"/>
  <path id="svg_6" fill="url(#SVGID_3_)" marker-start="none" marker-end="none" d="m24.078,30.751c0.01,-1.008 -0.738,-1.838 -1.668,-1.848c-7.207,-0.087 -11.02,-2.706 -12.91,-5.545c-1.921,-2.883 -2.043,-6.555 -0.849,-9.676c1.244,-3.254 3.942,-5.193 6.678,-5.54c1.941,-0.239 4.263,0.135 7.094,2.691l0.417,0.641l-4.162,4.659l13.162,1.462l-1.575,-13.499l-4.387,4.837l-0.591,-0.699c-3.42,-3.274 -6.954,-4.147 -10.347,-3.721c-4.381,0.55 -7.876,3.764 -9.409,7.771c-1.563,4.087 -1.485,9.136 1.233,13.215c2.742,4.118 7.783,6.963 15.607,7.059c0.931,0.012 1.696,-0.799 1.707,-1.807z"/>
 </g>
</svg>