<svg width="35.999" height="36.005" xmlns="http://www.w3.org/2000/svg" xmlns:xlink="http://www.w3.org/1999/xlink">
 <g>
  <title>background</title>
  <rect fill="none" id="canvas_background" height="402" width="582" y="-1" x="-1"/>
 </g>
 <g>
  <title>Layer 1</title>
  <path id="svg_1" fill="none" marker-start="none" marker-end="none" d="m0,0l0,36.005l35.999,0l0,-36.005l-35.999,0z"/>
  <defs>
   <rect width="35.999" id="SVGID_1_" height="36.005"/>
   <linearGradient y2="Infinity" y1="-Infinity" x2="Infinity" x1="Infinity" id="SVGID_3_">
    <stop stop-color="#73AEFF" offset="0"/>
    <stop stop-color="#478DEC" offset="0.5446"/>
    <stop stop-color="#205DAF" offset="1"/>
   </linearGradient>
  </defs>
  <clipPath id="SVGID_2_">
   <use id="svg_3" xlink:href="#SVGID_1_"/>
  </clipPath>
  <path id="svg_5" fill="#205DAF" marker-start="none" marker-end="none" d="m11.173,30.759c-0.014,-1.363 1.009,-2.59 2.409,-2.605c7.01,-0.085 10.568,-2.618 12.294,-5.211c1.764,-2.646 1.896,-6.056 0.773,-8.993c-1.148,-3.003 -3.619,-4.752 -6.071,-5.063c-1.5,-0.184 -3.301,0.02 -5.521,1.693l-0.913,0.757l-0.043,0.066l3.781,4.231c0.405,0.453 0.128,1.178 -0.477,1.245l-13.162,1.462c-0.479,0.053 -0.883,-0.354 -0.827,-0.832l1.575,-13.499c0.074,-0.638 0.869,-0.893 1.3,-0.417l3.811,4.203l0.039,-0.046l0.054,-0.057c3.583,-3.43 7.342,-4.378 10.959,-3.924c4.7,0.59 8.401,4.027 10.016,8.248c1.633,4.27 1.567,9.582 -1.309,13.898c-2.91,4.37 -8.211,7.295 -16.222,7.393c-1.402,0.019 -2.452,-1.184 -2.466,-2.549z"/>
  <path id="svg_6" fill="url(#SVGID_3_)" marker-start="none" marker-end="none" d="m11.923,30.751c-0.01,-1.008 0.738,-1.838 1.668,-1.848c7.207,-0.087 11.02,-2.706 12.91,-5.545c1.921,-2.883 2.043,-6.555 0.849,-9.676c-1.244,-3.254 -3.942,-5.193 -6.678,-5.54c-1.941,-0.239 -4.263,0.135 -7.094,2.691l-0.417,0.641l4.162,4.659l-13.162,1.462l1.575,-13.499l4.387,4.837l0.591,-0.699c3.42,-3.274 6.954,-4.147 10.347,-3.721c4.381,0.55 7.876,3.764 9.409,7.771c1.563,4.087 1.485,9.136 -1.233,13.215c-2.742,4.118 -7.783,6.963 -15.607,7.059c-0.931,0.012 -1.696,-0.799 -1.707,-1.807z"/>
 </g>
</svg>